<!-- Generated by IcoMoon.io -->
<svg version="1.1" xmlns="http://www.w3.org/2000/svg" width="32" height="32" viewBox="0 0 32 32">
<title>untitled</title>
<path fill="#fff" d="M15.925 4.472c0.284 0 0.542 0.151 0.656 0.385l3.039 6.17c0.175 0.356 0.521 0.605 0.92 0.663l6.992 1.017c0.263 0.038 0.488 0.214 0.57 0.445 0.079 0.225 0.019 0.471-0.159 0.643l-5.123 5.004c-0.28 0.273-0.406 0.662-0.341 1.043l1.188 6.939c0.041 0.242-0.068 0.482-0.278 0.624-0.128 0.086-0.277 0.13-0.432 0.13-0.126 0-0.25-0.030-0.357-0.086l-6.095-3.211c-0.18-0.094-0.38-0.142-0.579-0.142s-0.398 0.048-0.579 0.142l-6.089 3.209c-0.111 0.058-0.238 0.088-0.365 0.088-0.152 0-0.304-0.046-0.423-0.126-0.218-0.146-0.327-0.388-0.285-0.63l1.188-6.938c0.065-0.381-0.062-0.769-0.342-1.043l-5.124-5.005c-0.176-0.172-0.236-0.417-0.158-0.639 0.082-0.234 0.307-0.41 0.572-0.448l6.99-1.017c0.401-0.058 0.746-0.307 0.921-0.663l3.037-6.169c0.116-0.235 0.374-0.387 0.656-0.387zM15.925 3.278c-0.751 0-1.435 0.413-1.756 1.061l-3.039 6.17-6.99 1.017c-0.718 0.103-1.316 0.585-1.546 1.239-0.231 0.658-0.057 1.382 0.451 1.876l5.122 5.004-1.188 6.938c-0.121 0.7 0.189 1.401 0.796 1.811 0.334 0.222 0.725 0.337 1.117 0.337 0.322 0 0.646-0.077 0.939-0.229l6.093-3.21 6.095 3.21c0.293 0.152 0.616 0.229 0.937 0.229 0.393 0 0.784-0.115 1.118-0.337 0.607-0.41 0.916-1.111 0.796-1.811l-1.188-6.938 5.123-5.004c0.507-0.494 0.682-1.218 0.45-1.876-0.231-0.654-0.829-1.136-1.547-1.239l-6.99-1.017-3.039-6.17c-0.318-0.648-1.003-1.061-1.756-1.061v0z"></path>
</svg>
