<?xml version="1.0" encoding="UTF-8"?>
<svg width="8px" height="10px" viewBox="0 0 8 10" version="1.1" xmlns="http://www.w3.org/2000/svg" xmlns:xlink="http://www.w3.org/1999/xlink">
    <title>编组备份</title>
    <defs>
        <linearGradient x1="50%" y1="0%" x2="50%" y2="100%" id="linearGradient-1">
            <stop stop-color="#FF843C" offset="0%"></stop>
            <stop stop-color="#F46C06" offset="100%"></stop>
        </linearGradient>
    </defs>
    <g id="APP" stroke="none" stroke-width="1" fill="none" fill-rule="evenodd">
        <g id="首页" transform="translate(-145.000000, -438.000000)" fill="url(#linearGradient-1)" fill-rule="nonzero">
            <g id="编组备份" transform="translate(145.000000, 438.000000)">
                <g transform="translate(0.000000, 0.000000)" id="路径">
                    <path d="M2.25924384,9.22017075 C1.64884926,7.93512953 1.97010957,7.19623083 2.45200002,6.52158419 C2.96601651,5.75055946 3.09452063,5.01166075 3.09452063,5.01166075 C3.09452063,5.01166075 3.51215903,5.52567724 3.35152888,6.36095403 C4.05830155,5.55780327 4.18680567,4.27276205 4.09042758,3.7908716 C5.6967291,4.91528266 6.40350177,7.38898701 5.47184689,9.18804472 C10.4192556,6.36095403 6.69263605,2.15244404 6.05011544,1.70267962 C6.27499765,2.18457007 6.30712368,2.98772083 5.85735925,3.3732332 C5.11846055,0.546142518 3.28727682,0 3.28727682,0 C3.51215903,1.44567137 2.51625208,3.01984686 1.55247117,4.20850999 C1.52034514,3.63024144 1.48821911,3.24472908 1.1669588,2.66646053 C1.10270674,3.72661954 0.299555982,4.56189633 0.0746737684,5.62205533 C-0.214460506,7.06772671 0.299555982,8.09575968 2.25924384,9.22017075 L2.25924384,9.22017075 Z"></path>
                </g>
            </g>
        </g>
    </g>
</svg>