<!-- Generated by IcoMoon.io -->
<svg version="1.1" xmlns="http://www.w3.org/2000/svg" width="32" height="32" viewBox="0 0 32 32">
<title>no-voice</title>
<path d="M17.393 3.080c-0.367-0.157-0.793-0.080-1.083 0.197l-6.8 6.5c-0.207 0.143-0.467 0.223-0.73 0.223h-3.613c-1.747 0-3.167 1.347-3.167 3v6c0 1.653 1.42 3 3.167 3h3.61c0.263 0 0.523 0.077 0.61 0.127l6.923 6.6c0.19 0.18 0.44 0.277 0.69 0.277 0.133 0 0.267-0.027 0.393-0.080 0.367-0.157 0.607-0.52 0.607-0.92v-24.003c0-0.4-0.237-0.763-0.607-0.92zM16 25.667l-5.353-5.090c-0.537-0.373-1.203-0.577-1.87-0.577h-3.61c-0.643 0-1.167-0.45-1.167-1v-6c0-0.553 0.523-1 1.167-1h3.61c0.667 0 1.333-0.207 1.99-0.677l5.233-4.99v19.333zM26.413 16l3.293-3.293c0.39-0.39 0.39-1.023 0-1.413s-1.023-0.39-1.413 0l-3.293 3.293-3.293-3.293c-0.39-0.39-1.023-0.39-1.413 0s-0.39 1.023 0 1.413l3.293 3.293-3.293 3.293c-0.39 0.39-0.39 1.023 0 1.413 0.197 0.197 0.45 0.293 0.707 0.293s0.513-0.097 0.707-0.293l3.293-3.293 3.293 3.293c0.197 0.197 0.45 0.293 0.707 0.293s0.513-0.097 0.707-0.293c0.39-0.39 0.39-1.023 0-1.413l-3.293-3.293z"></path>
</svg>
