<?xml version="1.0" encoding="UTF-8"?>
<svg width="14px" height="16px" viewBox="0 0 14 16" version="1.1" xmlns="http://www.w3.org/2000/svg" xmlns:xlink="http://www.w3.org/1999/xlink">
    <title>编组</title>
    <g id="web" stroke="none" stroke-width="1" fill="none" fill-rule="evenodd">
        <g id="注册" transform="translate(-930.000000, -365.000000)" fill="#959595" fill-rule="nonzero">
            <g id="形状" transform="translate(930.000000, 365.000000)">
                <path d="M14,3.40903168 C13.950319,2.91604688 13.5908252,2.51216048 13.1109951,2.41024666 C12.1382391,2.25569007 11.1774469,2.03216037 10.2357342,1.74131301 C9.31353563,1.3590895 8.44881825,0.848278838 7.66675365,0.22375055 C7.25665359,-0.0745835167 6.70376742,-0.0745835167 6.29366736,0.22375055 C5.55334596,0.915744531 4.66878391,1.4309797 3.70520181,1.7314667 C2.81297713,2.10431108 1.87045208,2.33975588 0.909098817,2.42993928 C0.418742637,2.51001688 0.0514887882,2.92719344 0.0298364649,3.4287243 C0.0298364649,3.4287243 0,5.93522547 0,8.1414142 C0,12.1353235 4.66301322,16 6.99512874,16 C9.32663535,16 13.2790536,13.273803 13.9110995,8.20172285 C14.0694154,5.20598317 13.9598121,3.41887799 13.9598121,3.41887799 L14,3.40841629 L14,3.40903168 Z M11.4608559,6.49400354 L6.58959638,11.1371539 C6.3703897,11.3482341 6.03549061,11.3814654 5.77974948,11.2171551 L5.65187891,11.1069996 L2.96416145,8.28172411 C2.71312074,8.00608718 2.73070455,7.57696255 3.00343598,7.32324742 C3.27616741,7.06953229 3.70076862,7.08730342 3.95180932,7.36294036 L6.16518789,9.709439 L10.5517571,5.51552653 C10.7282922,5.35140161 10.978054,5.29492761 11.2069596,5.36737773 C11.4358652,5.43982786 11.6091385,5.63019521 11.661509,5.86677025 C11.7138795,6.10334529 11.637391,6.35018664 11.4608559,6.51431155 L11.4608559,6.49400354 L11.4608559,6.49400354 Z"></path>
            </g>
        </g>
    </g>
</svg>