<!-- Generated by IcoMoon.io -->
<svg version="1.1" xmlns="http://www.w3.org/2000/svg" width="32" height="32" viewBox="0 0 32 32">
<title>_</title>
<path  d="M30.246 18.853c0.819-3.276-0.082-5.414-0.082-5.414l-3.134-0.154c-0.275-0.983-0.677-1.911-1.188-2.769l2.114-2.4c-1.737-2.895-3.886-3.77-3.886-3.77l-2.328 2.11c-0.867-0.504-1.805-0.895-2.797-1.16l-0.2-3.153c-3.276-0.819-5.414 0.082-5.414 0.082l-0.149 3.031c-0.978 0.246-1.908 0.608-2.768 1.087l-2.203-1.997c0 0-2.149 0.875-3.886 3.77 0.552 0.627 1.639 1.347 1.704 2.268 0.016 0.228-1.046 2.914-1.091 2.916l-2.82 0.138c0 0-0.901 2.138-0.082 5.414l2.795 0.177c0.264 1.111 0.687 2.158 1.248 3.118l-1.84 2.030c0 0 0.875 2.149 3.77 3.886l2.097-1.847c0.95 0.569 1.987 1.002 3.089 1.278l0.136 2.776c0 0 2.138 0.901 5.414 0.082l0.184-2.898c1.116-0.296 2.164-0.753 3.12-1.35l2.224 1.958c2.896-1.737 3.771-3.886 3.771-3.886l-2.025-2.234c0.499-0.897 0.873-1.869 1.119-2.893l3.11-0.197zM16.142 22.98c-3.717 0-6.731-3.014-6.731-6.731s3.014-6.731 6.731-6.731 6.731 3.014 6.731 6.731c0 3.718-3.014 6.731-6.731 6.731z"></path>
</svg>
