<!-- Generated by IcoMoon.io -->
<svg version="1.1" xmlns="http://www.w3.org/2000/svg" width="32" height="32" viewBox="0 0 32 32">
<title>voice</title>
<path  d="M21 22c-0.243 0-0.49-0.090-0.68-0.27-0.403-0.377-0.427-1.010-0.050-1.413 1.113-1.193 1.73-2.727 1.73-4.317 0-1.587-0.617-3.123-1.73-4.317-0.377-0.403-0.357-1.037 0.050-1.413 0.403-0.377 1.033-0.353 1.413 0.050 1.46 1.567 2.267 3.583 2.267 5.68s-0.807 4.117-2.27 5.68c-0.197 0.213-0.463 0.32-0.73 0.32z"></path>
<path  d="M23.987 27.5c-0.29 0-0.58-0.127-0.777-0.37-0.347-0.43-0.28-1.060 0.15-1.407 2.95-2.387 4.64-5.933 4.64-9.723 0-3.787-1.687-7.327-4.63-9.713-0.427-0.347-0.493-0.977-0.147-1.407 0.35-0.43 0.98-0.493 1.407-0.147 3.413 2.77 5.37 6.877 5.37 11.267 0 4.4-1.963 8.507-5.383 11.277-0.187 0.15-0.41 0.223-0.63 0.223zM17 29c-0.253 0-0.5-0.097-0.69-0.277l-6.923-6.6c-0.087-0.047-0.347-0.127-0.61-0.127h-3.61c-1.747 0-3.167-1.347-3.167-3v-5.997c0-1.653 1.42-3 3.167-3h3.61c0.263 0 0.523-0.080 0.73-0.223l6.8-6.5c0.293-0.277 0.717-0.353 1.083-0.197s0.607 0.52 0.607 0.92v24c0 0.4-0.237 0.763-0.607 0.92-0.123 0.053-0.257 0.080-0.39 0.080zM5.167 12c-0.643 0-1.167 0.447-1.167 1v6c0 0.55 0.523 1 1.167 1h3.61c0.667 0 1.333 0.207 1.87 0.577l5.353 5.090v-19.333l-5.23 4.99c-0.66 0.473-1.323 0.677-1.99 0.677h-3.613z"></path>
</svg>
