<!-- Generated by IcoMoon.io -->
<svg version="1.1" xmlns="http://www.w3.org/2000/svg" width="32" height="32" viewBox="0 0 32 32">
<title>1</title>
<path fill="#dbdbdb" d="M22.106 25.003h-17.966c-0.928 0-1.684-0.756-1.684-1.684v-14.597c0-0.928 0.756-1.684 1.684-1.684h17.966c0.928 0 1.684 0.756 1.684 1.684v14.597c0 0.931-0.756 1.684-1.684 1.684zM4.141 8.159c-0.309 0-0.563 0.253-0.563 0.563v14.597c0 0.309 0.253 0.563 0.563 0.563h17.966c0.309 0 0.563-0.253 0.563-0.563v-14.597c0-0.309-0.253-0.563-0.563-0.563h-17.966z"></path>
<path fill="#dbdbdb" d="M28.281 22.813c-0.225 0-0.447-0.069-0.634-0.2l-4.734-3.262c-0.153-0.106-0.244-0.278-0.244-0.462v-5.734c0-0.184 0.091-0.356 0.244-0.463l4.734-3.263c0.191-0.131 0.409-0.2 0.634-0.2 0.619 0 1.125 0.503 1.125 1.125v11.338c0 0.619-0.503 1.122-1.125 1.122zM23.791 18.594l4.491 3.094 0.003-11.334-4.491 3.097v5.144zM10.875 20.512c-0.656 0-1.188-0.544-1.188-1.209v-6.563c0-0.669 0.534-1.213 1.188-1.213 0.209 0 0.419 0.059 0.6 0.169l5.484 3.281c0.366 0.219 0.587 0.609 0.587 1.044s-0.219 0.825-0.587 1.044l-5.484 3.278c-0.184 0.109-0.391 0.169-0.6 0.169zM10.881 12.659c-0.034 0-0.072 0.022-0.072 0.081v6.563c0 0.072 0.053 0.087 0.066 0.087 0.003 0 0.009 0 0.025-0.009l5.484-3.281c0.034-0.019 0.041-0.053 0.041-0.081 0-0.025-0.006-0.059-0.041-0.078l-5.488-3.281h-0.016z"></path>
</svg>
