<?xml version="1.0" standalone="no"?><!DOCTYPE svg PUBLIC "-//W3C//DTD SVG 1.1//EN" "http://www.w3.org/Graphics/SVG/1.1/DTD/svg11.dtd"><svg t="1670255787516" class="icon" viewBox="0 0 1024 1024" version="1.1" xmlns="http://www.w3.org/2000/svg" p-id="1227" xmlns:xlink="http://www.w3.org/1999/xlink" width="200" height="200"><path d="M556.586667 98.56c-11.733333-5.013333-25.386667-2.56-34.666667 6.293333l-217.6 208c-6.613333 4.586667-14.933333 7.146667-23.36 7.146667H165.333333c-55.893333 0-101.333333 43.093333-101.333333 96v192c0 52.906667 45.44 96 101.333333 96h115.52c8.426667 0 16.746667 2.453333 19.52 4.053333l221.546667 211.2c6.08 5.76 14.08 8.853333 22.08 8.853334 4.266667 0 8.533333-0.853333 12.586667-2.56 11.733333-5.013333 19.413333-16.64 19.413333-29.44V128c0-12.8-7.573333-24.426667-19.413333-29.44zM512 821.333333L340.693333 658.453333c-17.173333-11.946667-38.506667-18.453333-59.84-18.453333H165.333333c-20.586667 0-37.333333-14.4-37.333333-32V416c0-17.706667 16.746667-32 37.333333-32h115.52c21.333333 0 42.666667-6.613333 63.68-21.653333L512 202.666667v618.666666zM845.226667 512l105.386666-105.386667c12.48-12.48 12.48-32.746667 0-45.226666s-32.746667-12.48-45.226666 0L800 466.773333l-105.386667-105.386666c-12.48-12.48-32.746667-12.48-45.226666 0s-12.48 32.746667 0 45.226666l105.386666 105.386667-105.386666 105.386667c-12.48 12.48-12.48 32.746667 0 45.226666 6.293333 6.293333 14.4 9.386667 22.613333 9.386667s16.426667-3.093333 22.613333-9.386667l105.386667-105.386666 105.386667 105.386666c6.293333 6.293333 14.4 9.386667 22.613333 9.386667s16.426667-3.093333 22.613333-9.386667c12.48-12.48 12.48-32.746667 0-45.226666L845.226667 512z" p-id="1228" fill="#ffffff"></path></svg>