<!-- Generated by IcoMoon.io -->
<svg version="1.1" xmlns="http://www.w3.org/2000/svg" width="33" height="32" viewBox="0 0 33 32">
<title>2</title>
<path fill="#dbdbdb" d="M1.73 17.294v3.466c0 1.433 1.162 2.595 2.595 2.595s2.595-1.162 2.595-2.595v0-3.466c0-1.433-1.162-2.595-2.595-2.595s-2.595 1.162-2.595 2.595v0zM25.577 23.905c-0.838-0.788-1.36-1.904-1.36-3.142 0-0.001 0-0.002 0-0.003v0-3.466c0.002-2.376 1.92-4.304 4.292-4.321h0.002c-0.444-6.283-5.682-11.243-12.078-11.243s-11.634 4.96-12.078 11.243c2.373 0.019 4.291 1.945 4.294 4.321v3.467c0 2.388-1.936 4.324-4.324 4.324s-4.324-1.936-4.324-4.324v0-3.466c0.001-1.765 1.059-3.282 2.576-3.954l0.028-0.011c0.268-7.407 6.357-13.329 13.829-13.329s13.561 5.923 13.829 13.329c1.544 0.683 2.601 2.2 2.603 3.964v3.467c-0.002 2.387-1.937 4.321-4.324 4.321-0.52 0-1.019-0.092-1.48-0.26l0.030 0.010c-1.596 1.678-3.575 2.977-5.799 3.757l-0.103 0.032c-0.043 1.637-1.381 2.948-3.024 2.948-0.004 0-0.007 0-0.011-0h-2.578c-1.678 0-3.035-1.349-3.035-3.027 0-1.675 1.353-3.027 3.036-3.027h2.577c1.092 0 2.048 0.571 2.582 1.431 1.893-0.678 3.51-1.716 4.841-3.041l-0.001 0.001zM25.946 17.294v3.466c0 1.433 1.162 2.595 2.595 2.595s2.595-1.162 2.595-2.595v0-3.466c0-1.433-1.162-2.595-2.595-2.595s-2.595 1.162-2.595 2.595v0zM15.576 29.838h2.577c0.728 0 1.306-0.578 1.306-1.297s-0.58-1.297-1.306-1.297h-2.577c-0.728 0-1.306 0.578-1.306 1.297s0.58 1.297 1.306 1.297z"></path>
</svg>
