<!-- Generated by IcoMoon.io -->
<svg version="1.1" xmlns="http://www.w3.org/2000/svg" width="32" height="32" viewBox="0 0 32 32">
<title>untitled</title>
<path fill="#dbdbdb" d="M17.024 3.648c0.592 0 1.088 0.48 1.088 1.088 0 0.592-0.48 1.088-1.088 1.088-5.84 0-10.576 4.736-10.576 10.576s4.736 10.576 10.576 10.576c5.84 0 10.576-4.736 10.576-10.576 0-0.592 0.48-1.088 1.088-1.088 0.592 0 1.088 0.48 1.088 1.088 0 7.040-5.696 12.736-12.736 12.736s-12.736-5.696-12.736-12.736c-0.016-7.056 5.68-12.752 12.72-12.752zM23.584 9.056c-0.4-0.416-0.4-1.088 0.016-1.488 0.416-0.416 1.072-0.416 1.504 0l1.856 1.872c0.56 0.56 0.56 1.472 0 2.032l-1.872 1.872c-0.192 0.193-0.458 0.312-0.752 0.312s-0.56-0.119-0.752-0.312l-0-0c-0.193-0.192-0.312-0.458-0.312-0.752s0.119-0.56 0.312-0.752l0.32-0.32h-1.376c-3.728 0-5.008 1.584-5.008 6.4 0 0.592-0.48 1.056-1.056 1.056-0.592 0-1.056-0.48-1.056-1.056 0-5.952 2.176-8.528 7.12-8.528h1.376l-0.32-0.336z"></path>
</svg>
