<!-- Generated by IcoMoon.io -->
<svg version="1.1" xmlns="http://www.w3.org/2000/svg" width="32" height="32" viewBox="0 0 32 32">
<title>Top</title>
<path fill="#fff" d="M23.953 14.759l-6.438-6.438c-0.819-0.819-2.15-0.819-2.969 0l-6.438 6.438c-0.341 0.341-0.341 0.897 0 1.238s0.897 0.341 1.238 0l5.809-5.809v18.944c0 0.484 0.391 0.875 0.875 0.875s0.875-0.391 0.875-0.875v-18.944l5.809 5.809c0.341 0.341 0.897 0.341 1.238 0 0.344-0.341 0.344-0.894 0-1.238zM25.584 3.772h-19.106c-0.484 0-0.875-0.391-0.875-0.875s0.391-0.875 0.875-0.875h19.109c0.484 0 0.875 0.391 0.875 0.875-0.003 0.481-0.394 0.875-0.878 0.875z"></path>
</svg>
