<?xml version="1.0" standalone="no"?>
<!DOCTYPE svg PUBLIC "-//W3C//DTD SVG 20010904//EN"
 "http://www.w3.org/TR/2001/REC-SVG-20010904/DTD/svg10.dtd">
<svg version="1.0" xmlns="http://www.w3.org/2000/svg"
 width="270.000000pt" height="90.000000pt" viewBox="0 0 270.000000 90.000000"
 preserveAspectRatio="xMidYMid meet">

<g transform="translate(0.000000,90.000000) scale(0.100000,-0.100000)"
fill="#000000" stroke="none">
<path d="M0 450 l0 -450 1350 0 1350 0 0 450 0 450 -1350 0 -1350 0 0 -450z
m549 159 c65 -14 123 -56 157 -115 37 -62 39 -158 7 -220 -30 -56 -93 -111
-145 -125 -52 -14 -134 -7 -176 15 -84 44 -140 145 -129 237 14 120 93 195
229 218 4 0 30 -4 57 -10z m441 -249 l0 -40 42 0 41 0 -6 -121 c-4 -67 -12
-128 -18 -135 -13 -16 -79 -19 -79 -4 0 6 11 10 25 10 36 0 45 27 45 134 0 95
0 96 -24 96 -22 0 -25 -6 -31 -52 -14 -112 -56 -211 -84 -194 -7 5 -5 16 9 34
24 33 50 122 50 175 0 35 -2 37 -30 37 -16 0 -30 5 -30 10 0 6 14 10 30 10 28
0 30 2 30 40 0 29 4 40 15 40 11 0 15 -11 15 -40z m420 25 c0 -10 11 -15 35
-15 19 0 35 -4 35 -10 0 -5 -16 -10 -35 -10 -28 0 -35 -4 -35 -20 0 -17 7 -20
50 -20 l50 0 0 45 c0 25 5 45 10 45 6 0 10 -20 10 -45 l0 -45 50 0 c28 0 50
-4 50 -10 0 -5 -20 -10 -45 -10 l-45 0 1 -42 c0 -24 4 -52 8 -63 7 -16 10 -12
23 25 8 24 20 46 26 48 18 6 14 -16 -12 -80 -21 -51 -22 -60 -9 -78 18 -26 31
-26 35 2 2 12 9 23 16 26 15 5 7 -43 -11 -66 -14 -18 -24 -15 -49 13 l-21 24
-29 -24 c-55 -46 -66 -27 -15 23 l33 33 -15 77 -16 77 -108 3 c-60 1 -107 7
-107 12 0 6 23 10 51 10 43 0 50 3 47 18 -2 12 -14 18 -41 20 -50 4 -48 22 3
22 29 0 40 4 40 15 0 8 5 15 10 15 6 0 10 -7 10 -15z m203 -47 c-7 -13 -17 -8
-36 17 -26 36 -11 50 18 17 13 -15 21 -30 18 -34z m249 30 l3 -33 73 -3 72 -3
0 -89 c0 -73 -3 -90 -15 -90 -8 0 -15 7 -15 15 0 13 -11 15 -57 13 l-58 -3 -3
-67 c-4 -88 -20 -88 -24 0 l-3 67 -53 3 c-40 2 -54 -1 -58 -12 -15 -38 -24 -9
-24 74 l0 90 70 0 70 0 0 35 c0 44 18 46 22 3z m-632 -173 c0 -131 -7 -172
-24 -130 -8 21 -76 21 -76 0 0 -8 -4 -15 -10 -15 -6 0 -10 55 -10 145 l0 145
60 0 60 0 0 -145z m160 60 c0 -11 12 -15 45 -15 25 0 45 -4 45 -10 0 -5 -25
-10 -55 -10 -43 0 -56 -4 -65 -19 -14 -28 -13 -31 15 -31 16 0 25 6 25 15 0 8
5 15 10 15 6 0 10 -7 10 -15 0 -10 10 -15 30 -15 17 0 30 -4 30 -10 0 -5 -13
-10 -30 -10 -20 0 -30 -5 -30 -15 0 -10 10 -15 30 -15 17 0 30 -4 30 -9 0 -5
-13 -12 -30 -16 -21 -5 -30 -13 -30 -26 0 -10 -4 -19 -10 -19 -5 0 -10 9 -10
21 0 18 -5 20 -42 17 -58 -4 -65 16 -8 22 32 4 46 10 48 23 3 14 -4 17 -37 17
-34 0 -41 3 -41 19 0 11 5 23 10 26 17 10 11 25 -10 25 -11 0 -20 5 -20 10 0
6 11 10 25 10 14 0 28 7 31 15 4 8 12 15 20 15 8 0 14 -7 14 -15z"/>
<path d="M506 584 c8 -31 -43 -70 -98 -78 -44 -5 -48 -4 -48 16 0 21 0 21 -21
2 -37 -33 -70 -113 -35 -84 12 9 19 4 36 -31 17 -33 20 -51 15 -86 -6 -41 -8
-44 -31 -39 -13 4 -24 3 -24 0 0 -13 51 -74 70 -84 17 -9 20 -8 17 12 -2 20 4
23 43 29 37 5 52 2 83 -18 38 -24 39 -25 20 -45 -18 -21 -18 -21 16 -15 18 4
50 17 70 30 33 20 34 22 13 25 -20 3 -21 7 -16 45 7 53 66 116 90 96 12 -9 14
-6 14 22 0 19 -3 44 -6 57 -6 20 -8 21 -18 6 -11 -15 -16 -15 -53 5 -25 12
-45 31 -51 48 -5 15 -13 36 -17 45 -5 12 0 17 17 20 22 4 22 5 -7 17 -16 7
-42 15 -57 18 -22 4 -26 2 -22 -13z m58 -144 c5 -5 11 -31 14 -58 l4 -50 -48
-21 -47 -21 -30 27 c-46 44 -48 54 -19 101 l25 44 46 -7 c25 -4 50 -11 55 -15z"/>
<path d="M1727 303 c-4 -3 -7 -28 -7 -55 l0 -48 60 0 60 0 0 55 0 55 -53 0
c-30 0 -57 -3 -60 -7z"/>
<path d="M1864 296 c-3 -8 -4 -31 -2 -52 l3 -39 58 -3 57 -3 0 56 0 55 -55 0
c-38 0 -57 -4 -61 -14z"/>
<path d="M1130 210 l0 -110 40 0 40 0 0 110 0 110 -40 0 -40 0 0 -110z"/>
</g>
</svg>
